<svg width="480" height="160" viewBox="0 0 480 160" fill="none" xmlns="http://www.w3.org/2000/svg">
  <defs>
    <radialGradient id="coreGlow" cx="50%" cy="50%" r="50%">
      <stop offset="0%"   stop-color="#38bdf8" stop-opacity="0.25"/>
      <stop offset="100%" stop-color="#38bdf8" stop-opacity="0"/>
    </radialGradient>
    <linearGradient id="surfaceGrad" x1="0%" y1="0%" x2="100%" y2="100%">
      <stop offset="0%"   stop-color="#4ade80"/>
      <stop offset="40%"  stop-color="#38bdf8"/>
      <stop offset="100%" stop-color="#818cf8"/>
    </linearGradient>
    <linearGradient id="gridFade" x1="0%" y1="0%" x2="0%" y2="100%">
      <stop offset="0%"   stop-color="#38bdf8" stop-opacity="0.5"/>
      <stop offset="100%" stop-color="#38bdf8" stop-opacity="0.03"/>
    </linearGradient>
    <linearGradient id="textGrad" x1="0%" y1="0%" x2="100%" y2="0%">
      <stop offset="0%"   stop-color="#e2e8f0"/>
      <stop offset="60%"  stop-color="#cbd5e1"/>
      <stop offset="100%" stop-color="#94a3b8"/>
    </linearGradient>
    <clipPath id="markClip">
      <rect x="0" y="0" width="148" height="148"/>
    </clipPath>
    <filter id="softGlow" x="-20%" y="-20%" width="140%" height="140%">
      <feGaussianBlur in="SourceGraphic" stdDeviation="2" result="blur"/>
      <feMerge><feMergeNode in="blur"/><feMergeNode in="SourceGraphic"/></feMerge>
    </filter>
  </defs>
  <ellipse cx="74" cy="80" rx="60" ry="60" fill="url(#coreGlow)"/>
  <g clip-path="url(#markClip)" opacity="0.35">
    <line x1="14" y1="115" x2="134" y2="115" stroke="url(#gridFade)" stroke-width="0.6"/>
    <line x1="22" y1="104" x2="126" y2="104" stroke="url(#gridFade)" stroke-width="0.5"/>
    <line x1="30" y1="94"  x2="118" y2="94"  stroke="url(#gridFade)" stroke-width="0.45"/>
    <line x1="38" y1="85"  x2="110" y2="85"  stroke="url(#gridFade)" stroke-width="0.4"/>
    <line x1="74" y1="115" x2="74"  y2="45"  stroke="url(#gridFade)" stroke-width="0.6"/>
    <line x1="54" y1="115" x2="66"  y2="45"  stroke="url(#gridFade)" stroke-width="0.5"/>
    <line x1="34" y1="115" x2="58"  y2="45"  stroke="url(#gridFade)" stroke-width="0.4"/>
    <line x1="14" y1="115" x2="50"  y2="45"  stroke="url(#gridFade)" stroke-width="0.35"/>
    <line x1="94" y1="115" x2="82"  y2="45"  stroke="url(#gridFade)" stroke-width="0.5"/>
    <line x1="114" y1="115" x2="90" y2="45"  stroke="url(#gridFade)" stroke-width="0.4"/>
    <line x1="134" y1="115" x2="98" y2="45"  stroke="url(#gridFade)" stroke-width="0.35"/>
  </g>
  <path d="M 18 118 L 74 44" stroke="url(#surfaceGrad)" stroke-width="2.5" stroke-linecap="round" filter="url(#softGlow)"/>
  <path d="M 130 118 L 74 44" stroke="url(#surfaceGrad)" stroke-width="2.5" stroke-linecap="round" filter="url(#softGlow)"/>
  <path d="M 18 118 C 36 90, 56 72, 74 66 C 92 72, 112 90, 130 118" stroke="#38bdf8" stroke-width="1.5" stroke-linecap="round" fill="none" opacity="0.6"/>
  <path d="M 24 112 C 36 98, 48 88, 60 80 C 66 76, 70 73, 74 72 C 78 73, 82 76, 88 80 C 100 88, 112 98, 124 112" stroke="#4ade80" stroke-width="1.2" fill="none" stroke-linecap="round" opacity="0.7"/>
  <circle cx="74" cy="44" r="3" fill="#4ade80" opacity="0.9" filter="url(#softGlow)"/>
  <circle cx="74" cy="44" r="1.5" fill="#ffffff"/>
  <line x1="148" y1="24" x2="148" y2="136" stroke="#1e3a4a" stroke-width="0.8"/>
  <text x="168" y="88" font-family="'Courier New', monospace" font-size="52" font-weight="700" letter-spacing="-1" fill="url(#textGrad)">VIMATHIC</text>
  <text x="170" y="112" font-family="'Courier New', monospace" font-size="9" letter-spacing="4" fill="#2a4a5a">MATHEMATICAL VISUALIZER</text>
</svg>
